<?xml version="1.0" encoding="iso-8859-1"?>
<!-- Uploaded to: SVG Repo, www.svgrepo.com, Generator: SVG Repo Mixer Tools -->
<svg height="800px" width="800px" version="1.1" id="Layer_1" xmlns="http://www.w3.org/2000/svg" xmlns:xlink="http://www.w3.org/1999/xlink" 
	 viewBox="0 0 502 502" xml:space="preserve">
<g>
	<path style="fill:#C75924;" d="M425.233,84.5C381.354,38.595,319.517,10,251,10S120.646,38.595,76.767,84.5
		C35.406,127.769,10,186.417,10,251s25.406,123.231,66.767,166.5C120.646,463.405,182.483,492,251,492s130.354-28.595,174.233-74.5
		C466.594,374.231,492,315.583,492,251S466.594,127.769,425.233,84.5z"/>
	<g>
		<path d="M432.462,77.59c-23.19-24.261-50.478-43.344-81.104-56.719C319.645,7.022,285.88,0,251,0s-68.645,7.022-100.358,20.872
			C120.016,34.247,92.729,53.33,69.538,77.59C24.696,124.502,0,186.086,0,251s24.696,126.498,69.538,173.41
			c23.19,24.261,50.478,43.344,81.104,56.719C182.355,494.978,216.12,502,251,502s68.645-7.022,100.358-20.872
			c30.626-13.375,57.914-32.458,81.104-56.719C477.304,377.498,502,315.914,502,251S477.304,124.502,432.462,77.59z
			 M424.925,403.026c-21.496-20.692-46.198-37.202-73.567-49.155C322.686,341.35,292.334,334.43,261,333.214V261h220.782
			C479.538,313.636,459.617,363.404,424.925,403.026z M77.075,403.026C42.383,363.404,22.462,313.636,20.218,261H241v72.214
			c-31.334,1.216-61.686,8.136-90.358,20.657C123.272,365.825,98.571,382.334,77.075,403.026z M77.075,98.974
			c21.496,20.692,46.198,37.202,73.567,49.155c28.672,12.521,59.024,19.441,90.358,20.657V241H20.218
			C22.462,188.364,42.383,138.596,77.075,98.974z M261,241v-72.214c31.334-1.216,61.686-8.136,90.358-20.657
			c27.37-11.953,52.071-28.463,73.567-49.155c34.692,39.623,54.612,89.39,56.857,142.026L261,241L261,241z M411.112,84.488
			c-40.828,39.36-93.483,61.908-150.112,64.286V20.221C317.625,22.599,370.285,45.135,411.112,84.488z M241,20.221v128.553
			c-56.629-2.378-109.284-24.926-150.112-64.286C131.715,45.135,184.375,22.599,241,20.221z M90.888,417.512
			c40.828-39.36,93.483-61.908,150.112-64.286v128.553C184.375,479.401,131.715,456.865,90.888,417.512z M261,481.779V353.226
			c56.629,2.378,109.284,24.926,150.112,64.286C370.285,456.865,317.625,479.401,261,481.779z"/>
		<path d="M123.868,91.619c1.952,2.729,5.023,4.182,8.141,4.182c2.014,0,4.048-0.607,5.811-1.869
			c22.895-16.383,48.479-27.336,76.042-32.556c5.427-1.027,8.993-6.259,7.965-11.686c-1.027-5.426-6.261-8.995-11.686-7.965
			c-30.438,5.763-58.686,17.856-83.96,35.941C121.689,80.881,120.654,87.127,123.868,91.619z"/>
		<path d="M48.293,225.852c0.58,0.101,1.155,0.149,1.724,0.149c4.771,0,8.996-3.427,9.841-8.289
			c4.907-28.236,15.807-54.459,32.397-77.942c3.187-4.511,2.113-10.75-2.397-13.938c-4.511-3.187-10.751-2.113-13.938,2.397
			c-18.314,25.923-30.348,54.877-35.767,86.057C39.208,219.729,42.852,224.906,48.293,225.852z"/>
	</g>
</g>
</svg>